<?xml version="1.0" standalone="no"?>
<!DOCTYPE svg PUBLIC "-//W3C//DTD SVG 20010904//EN"
 "http://www.w3.org/TR/2001/REC-SVG-20010904/DTD/svg10.dtd">
<svg version="1.0" xmlns="http://www.w3.org/2000/svg"
 width="400.000000pt" height="100.000000pt" viewBox="0 0 400.000000 100.000000"
 preserveAspectRatio="xMidYMid meet">

<g transform="translate(0.000000,100.000000) scale(0.100000,-0.100000)"
fill="#000000" stroke="none">
<path d="M176 634 c-3 -9 -6 -56 -6 -105 0 -92 -10 -129 -34 -129 -8 0 -16 9
-19 21 -4 16 -12 20 -39 17 -38 -3 -46 -24 -28 -67 20 -48 84 -65 139 -36 45
23 62 72 68 201 l6 114 -40 0 c-28 0 -43 -5 -47 -16z"/>
<path d="M388 638 c-28 -23 -125 -289 -112 -310 3 -4 23 -8 44 -8 34 0 41 4
46 25 12 46 84 47 84 0 0 -23 3 -25 46 -25 l46 0 -7 43 c-20 124 -48 245 -61
265 -16 25 -60 30 -86 10z m42 -154 c0 -15 -6 -24 -16 -24 -11 0 -14 5 -10 16
3 9 6 22 6 30 0 9 5 12 10 9 6 -3 10 -17 10 -31z m75 -124 c7 -24 7 -24 -9 -5
-8 11 -16 27 -16 35 0 20 16 1 25 -30z"/>
<path d="M577 643 c-3 -5 -8 -79 -12 -165 l-7 -158 40 0 c42 0 50 11 53 70 1
22 2 21 10 -7 13 -45 43 -44 70 2 12 19 22 35 22 35 1 0 0 -22 -1 -50 l-4 -50
46 0 46 0 0 149 c0 158 -6 181 -49 181 -24 0 -33 -12 -61 -82 -13 -31 -27 -55
-30 -53 -4 3 -13 26 -20 52 -6 27 -19 56 -27 66 -16 17 -68 24 -76 10z"/>
<path d="M943 641 c-28 -4 -54 -9 -56 -11 -5 -5 -27 -240 -27 -287 l0 -25 89
4 c70 2 93 7 110 22 29 26 38 83 18 117 -13 24 -13 30 -1 39 17 15 28 71 19
99 -7 24 -54 52 -82 50 -10 -1 -41 -5 -70 -8z m63 -83 c8 -12 -21 -38 -43 -38
-13 0 -18 32 -6 43 10 11 41 8 49 -5z m-11 -118 c9 -15 -14 -40 -36 -40 -22 0
-27 35 -6 43 21 9 36 8 42 -3z"/>
<path d="M1131 628 c0 -22 1 -22 9 -3 7 16 9 17 9 3 1 -9 -3 -19 -9 -23 -5 -3
-7 -12 -3 -20 3 -8 0 -15 -6 -15 -7 0 -11 -40 -11 -125 l0 -125 38 0 39 0 6
122 c4 66 7 141 7 165 l0 43 -40 0 c-35 0 -40 -3 -39 -22z"/>
<path d="M1388 642 c8 -5 10 -16 6 -27 -7 -18 -8 -18 -15 1 -5 13 -8 5 -8 -26
-1 -25 -4 -96 -8 -157 l-6 -113 46 0 46 0 0 75 c0 41 3 116 7 165 l7 90 -44 0
c-27 0 -39 -4 -31 -8z m-1 -74 c-3 -8 -6 -5 -6 6 -1 11 2 17 5 13 3 -3 4 -12
1 -19z"/>
<path d="M1486 635 c-3 -9 -9 -83 -12 -165 l-7 -150 41 0 42 0 1 88 0 87 34
-85 c31 -80 35 -85 65 -88 18 -2 36 0 40 5 5 4 10 78 11 163 l4 155 -35 0 -35
0 -5 -60 c-6 -58 -6 -59 -18 -32 -7 16 -12 32 -12 36 0 5 -9 20 -21 35 -24 30
-83 37 -93 11z"/>
<path d="M1770 641 c-22 -6 -26 -13 -31 -71 -4 -36 -7 -107 -8 -159 l-1 -93
60 4 c70 5 104 26 137 83 45 80 39 183 -14 225 -26 21 -90 26 -143 11z m105
-105 c9 -45 -25 -126 -53 -126 -18 0 -19 6 -15 68 6 87 8 92 37 92 21 0 26 -6
31 -34z"/>
<path d="M2088 638 c-25 -20 -124 -299 -111 -312 4 -3 23 -6 44 -6 30 0 39 4
45 23 9 28 22 37 57 37 23 0 27 -4 27 -30 0 -29 2 -30 45 -30 30 0 45 4 45 13
0 39 -52 273 -65 293 -17 27 -61 32 -87 12z m42 -148 c0 -20 -5 -30 -15 -30
-18 0 -18 1 -5 34 13 34 20 33 20 -4z m79 -140 c1 -9 -5 -6 -15 8 -8 12 -12
27 -8 34 8 12 22 -13 23 -42z"/>
<path d="M2276 578 c-3 -40 -9 -115 -12 -165 l-7 -93 47 0 46 0 0 65 c0 49 3
65 14 65 8 0 21 3 30 6 12 5 16 -6 18 -63 l3 -68 38 -3 c24 -2 39 1 41 10 3 7
6 82 9 166 l4 153 -41 -3 -41 -3 -3 -57 -3 -58 -34 0 -33 0 5 60 6 60 -40 0
-41 0 -6 -72z"/>
<path d="M2677 643 c-4 -3 -7 -24 -7 -46 0 -39 0 -39 35 -35 l35 4 0 -123 0
-123 39 0 39 0 7 130 8 130 33 0 c32 0 34 2 34 35 l0 35 -108 0 c-60 0 -112
-3 -115 -7z"/>
<path d="M2979 643 c-36 -4 -37 -5 -43 -56 -3 -29 -8 -101 -12 -160 l-6 -108
38 3 c39 3 39 3 42 51 4 63 24 62 57 -3 14 -27 28 -50 31 -50 3 0 19 9 35 21
l29 20 -24 47 -24 47 24 28 c35 41 34 118 -2 146 -27 21 -54 23 -145 14z m89
-90 c-2 -19 -12 -32 -31 -41 -16 -8 -30 -12 -32 -10 -9 10 10 68 24 71 36 10
42 7 39 -20z"/>
<path d="M3291 637 c-24 -30 -111 -272 -111 -310 0 -4 19 -7 43 -7 38 0 44 3
54 30 9 24 17 30 41 30 25 0 30 -5 36 -30 5 -28 8 -30 51 -30 25 0 45 3 45 8
-2 36 -61 296 -70 307 -15 19 -74 20 -89 2z m48 -164 c1 -7 -6 -13 -14 -13
-17 0 -18 4 -8 39 6 23 7 23 14 5 4 -10 8 -25 8 -31z m71 -99 c0 -8 -4 -12
-10 -9 -5 3 -10 13 -10 21 0 8 5 12 10 9 6 -3 10 -13 10 -21z"/>
<path d="M3487 620 c-4 -16 -10 -91 -13 -165 l-7 -135 41 0 41 0 3 88 3 87 33
-87 34 -88 39 0 39 0 0 98 c0 53 3 128 7 165 l6 68 -39 -3 -39 -3 -5 -60 -5
-60 -19 49 c-25 62 -40 76 -80 76 -29 0 -34 -4 -39 -30z"/>
<path d="M3803 640 c-29 -12 -63 -67 -63 -103 0 -28 22 -54 86 -103 24 -19 27
-24 15 -38 -12 -14 -17 -14 -49 0 -34 14 -38 13 -49 -2 -21 -29 -15 -44 22
-60 73 -30 145 -9 164 49 16 46 2 76 -53 122 -48 39 -55 55 -32 74 12 10 15 7
18 -16 3 -25 7 -28 38 -28 32 0 35 3 38 32 6 63 -65 101 -135 73z"/>
</g>
</svg>
