<?xml version="1.0" standalone="no"?>
<!DOCTYPE svg PUBLIC "-//W3C//DTD SVG 20010904//EN"
 "http://www.w3.org/TR/2001/REC-SVG-20010904/DTD/svg10.dtd">
<svg version="1.0" xmlns="http://www.w3.org/2000/svg"
 width="40.000000pt" height="40.000000pt" viewBox="0 0 40.000000 40.000000"
 preserveAspectRatio="xMidYMid meet">

<g transform="translate(0.000000,40.000000) scale(0.100000,-0.100000)"
fill="#000000" stroke="none">
<path d="M110 215 l0 -54 -30 6 c-22 4 -30 2 -30 -9 0 -21 21 -38 46 -38 34 0
54 37 54 97 0 46 -3 53 -20 53 -18 0 -20 -7 -20 -55z"/>
<path d="M176 248 c-3 -13 -7 -47 -11 -75 -5 -47 -4 -53 13 -53 15 0 21 10 26
46 10 76 8 104 -9 104 -8 0 -17 -10 -19 -22z"/>
<path d="M220 250 c0 -14 7 -20 21 -20 19 0 21 -5 17 -55 -3 -47 0 -55 15 -55
12 0 17 8 17 29 0 49 12 91 26 91 8 0 14 7 14 15 0 12 -13 15 -55 15 -48 0
-55 -2 -55 -20z"/>
</g>
</svg>
